<svg xmlns="http://www.w3.org/2000/svg" xml:space="preserve" width="110mm" height="110mm" viewBox="0 0 110 110">
  <path fill="#060606" d="M-164.03-472.465c24.415-9.375 44.806-4.495 63.88 10.432 42.232 33.048 85.22 65.14 127.095 98.629 29.733 23.778 30 84.91.4 108.578-43.506 34.789-87.693 68.752-132.237 102.205-22.927 17.218-46.73 17.553-69.6.474-46.304-34.58-92.23-69.729-136.995-106.257-8.278-6.756-12.593-20.658-14.895-32.04-8.403-41.556 7.815-70.592 43.86-93.816 40.844-26.314 78.246-57.97 118.493-88.205m-68.025 92.89c-14.183 8.118-29.292 14.983-42.353 24.621-25.536 18.845-24.889 25.016.818 44.849 29.73 22.935 59.344 46.023 89.052 68.988 44.903 34.711 44.92 34.69 89.863-1.082 19.648-15.639 19.983-23.02-.001-38.704-38.289-30.049-76.885-59.71-115.623-89.177-5.344-4.066-12.223-6.113-21.756-9.495m130.843-49.612c-6.61-5.03-13.16-10.146-19.847-15.072-12.71-9.364-25.637-9.62-38.326-.112-11.086 8.308-22.104 16.731-32.785 25.549-10.834 8.944-11.105 18.878-.33 27.985 10.042 8.487 20.864 16.043 31.105 24.305 14.714 11.872 28.918 11.179 43.211-.731 6.378-5.315 13.18-10.12 19.714-15.25 25.089-19.704 25.043-24.094-2.742-46.674m24.843 63.884c-42.4 31.422-42.41 32.322-.742 64.082.554.423 1.07.896 1.627 1.315 24.438 18.414 31.137 18.442 55.283.238 43.859-33.066 43.859-33.066-.295-66.812-22.853-17.467-30.318-17.587-55.873 1.177" style="fill:#fff;fill-opacity:1;stroke-width:.999998" transform="translate(91.93 136.594)scale(.26458)"/>
</svg>