<?xml version="1.0" encoding="UTF-8"?>
<svg xmlns="http://www.w3.org/2000/svg" xmlns:xlink="http://www.w3.org/1999/xlink" width="192px" height="192px" viewBox="0 0 192 192" version="1.1">
<g id="surface1">
<path style=" stroke:none;fill-rule:nonzero;fill:rgb(0%,0%,0%);fill-opacity:1;" d="M 176.140625 14.609375 L 15.859375 14.609375 C 7.09375 14.609375 0 21.703125 0 30.46875 L 0 122.921875 C 0 131.6875 7.09375 139.824219 15.859375 139.824219 L 68.871094 139.824219 L 68.871094 148.382812 L 53.007812 161.113281 C 50.085938 163.410156 48.835938 167.792969 50.085938 171.128906 C 51.339844 174.46875 54.46875 177.390625 58.015625 177.390625 L 133.148438 177.390625 C 136.695312 177.390625 140.035156 174.46875 141.285156 171.128906 C 142.539062 167.792969 141.496094 163.617188 138.78125 161.320312 L 123.128906 148.382812 L 123.128906 139.824219 L 176.140625 139.824219 C 184.90625 139.824219 192 131.6875 192 122.921875 L 192 30.46875 C 192 21.703125 184.90625 14.609375 176.140625 14.609375 Z M 111.027344 158.191406 L 116.035156 162.78125 L 75.128906 162.78125 L 80.554688 157.984375 C 82.226562 156.523438 83.476562 154.015625 83.476562 151.722656 L 83.476562 139.824219 L 108.523438 139.824219 L 108.523438 151.929688 C 108.523438 154.015625 109.355469 156.730469 111.027344 158.191406 Z M 175.304688 123.128906 L 16.695312 123.128906 L 16.695312 31.304688 L 175.304688 31.304688 Z M 175.304688 123.128906 "/>
</g>
</svg>
