<?xml version="1.0" encoding="UTF-8"?>
<svg xmlns="http://www.w3.org/2000/svg" xmlns:xlink="http://www.w3.org/1999/xlink" width="192px" height="192px" viewBox="0 0 192 192" version="1.1">
<g id="surface1">
<path style=" stroke:none;fill-rule:nonzero;fill:rgb(0%,0%,0%);fill-opacity:1;" d="M 173.308594 127.464844 L 142.960938 127.464844 L 142.960938 104.113281 L 172.847656 104.113281 C 174.433594 104.113281 175.71875 102.828125 175.71875 101.246094 L 175.71875 69.082031 C 175.71875 67.496094 174.433594 66.210938 172.847656 66.210938 L 143.253906 66.210938 L 143.253906 38.683594 C 143.253906 37.097656 141.96875 35.8125 140.382812 35.8125 L 64.96875 35.8125 L 64.96875 22.601562 C 64.96875 21.015625 63.6875 19.730469 62.101562 19.730469 L 18.015625 19.730469 C 16.429688 19.730469 15.148438 21.015625 15.148438 22.601562 L 15.148438 54.765625 C 15.148438 56.351562 16.429688 57.636719 18.015625 57.636719 L 37.1875 57.636719 L 37.1875 76.261719 L 37.785156 108.371094 L 37.785156 126.945312 L 18.617188 126.945312 C 17.03125 126.945312 15.746094 128.234375 15.746094 129.816406 L 15.746094 161.980469 C 15.746094 163.566406 17.03125 164.851562 18.617188 164.851562 L 62.699219 164.851562 C 64.285156 164.851562 65.570312 163.566406 65.570312 161.980469 L 65.570312 129.816406 C 65.570312 128.234375 64.285156 126.945312 62.699219 126.945312 L 43.527344 126.945312 L 43.527344 108.320312 L 42.929688 76.210938 L 42.929688 57.636719 L 62.101562 57.636719 C 63.6875 57.636719 64.972656 56.351562 64.972656 54.765625 L 64.972656 41.554688 L 137.515625 41.554688 L 137.515625 66.210938 L 87.738281 66.210938 C 86.152344 66.210938 84.867188 67.496094 84.867188 69.082031 L 84.867188 101.246094 C 84.867188 102.828125 86.152344 104.113281 87.738281 104.113281 L 137.222656 104.113281 L 137.222656 127.464844 L 87.328125 127.464844 C 85.738281 127.464844 84.457031 128.75 84.457031 130.332031 L 84.457031 162.5 C 84.457031 164.082031 85.738281 165.367188 87.328125 165.367188 L 173.308594 165.367188 C 174.894531 165.367188 176.179688 164.082031 176.179688 162.5 L 176.179688 130.332031 C 176.179688 128.75 174.894531 127.464844 173.308594 127.464844 Z M 59.828125 159.113281 L 21.484375 159.113281 L 21.484375 132.6875 L 59.828125 132.6875 Z M 59.230469 51.894531 L 20.886719 51.894531 L 20.886719 25.46875 L 59.230469 25.46875 Z M 90.609375 71.949219 L 169.980469 71.949219 L 169.980469 98.375 L 90.609375 98.375 Z M 170.441406 159.628906 L 90.195312 159.628906 L 90.195312 133.203125 L 170.441406 133.203125 Z M 170.441406 159.628906 "/>
</g>
</svg>
