<svg xmlns="http://www.w3.org/2000/svg" version="1.1" xmlns:xlink="http://www.w3.org/1999/xlink" xmlns:svgjs="http://svgjs.dev/svgjs" width="1920" height="1080" preserveAspectRatio="none" viewBox="0 0 1920 1080"><g mask="url(&quot;#SvgjsMask1598&quot;)" fill="none"><rect width="1920" height="1080" x="0" y="0" fill="rgba(21, 21, 22, 1)"></rect><g mask="url(&quot;#SvgjsMask1599&quot;)"><path d="M11.5 563.5L34.5 540.5L57.5 540.5M-11.5 540.5L11.5 563.5L34.5 563.5L57.5 563.5L80.5 563.5" stroke="#dd1133" stroke-width="3.83"></path><path d="M74.75 563.5 a5.75 5.75 0 1 0 11.5 0 a5.75 5.75 0 1 0 -11.5 0zM51.75 540.5 a5.75 5.75 0 1 0 11.5 0 a5.75 5.75 0 1 0 -11.5 0z" fill="#dd1133"></path><path d="M264.5 517.5L287.5 494.5L310.5 494.5M241.5 517.5L264.5 540.5L287.5 540.5L310.5 540.5L333.5 540.5M172.5 517.5L195.5 494.5L218.5 494.5M80.5 517.5L103.5 540.5L126.5 540.5M-11.5 517.5L11.5 517.5L34.5 517.5L57.5 517.5L80.5 517.5L103.5 517.5L126.5 517.5L149.5 517.5L172.5 517.5L195.5 517.5L218.5 517.5L241.5 517.5L264.5 517.5L287.5 517.5L310.5 517.5L333.5 494.5L356.5 494.5L379.5 494.5" stroke="rgba(66, 68, 90, 1)" stroke-width="3.83"></path><path d="M373.75 494.5 a5.75 5.75 0 1 0 11.5 0 a5.75 5.75 0 1 0 -11.5 0zM304.75 494.5 a5.75 5.75 0 1 0 11.5 0 a5.75 5.75 0 1 0 -11.5 0zM327.75 540.5 a5.75 5.75 0 1 0 11.5 0 a5.75 5.75 0 1 0 -11.5 0zM212.75 494.5 a5.75 5.75 0 1 0 11.5 0 a5.75 5.75 0 1 0 -11.5 0zM120.75 540.5 a5.75 5.75 0 1 0 11.5 0 a5.75 5.75 0 1 0 -11.5 0z" fill="rgba(66, 68, 90, 1)"></path><path d="M34.5 586.5L57.5 609.5L80.5 609.5L103.5 609.5M218.5 586.5L241.5 563.5M540.5 563.5L563.5 586.5L586.5 586.5M609.5 563.5L632.5 586.5M241.5 586.5L264.5 586.5M402.5 563.5L425.5 586.5L448.5 586.5L471.5 586.5L494.5 586.5M310.5 563.5L333.5 586.5M-11.5 563.5L11.5 586.5L34.5 586.5L57.5 586.5L80.5 586.5L103.5 586.5L126.5 586.5L149.5 586.5L172.5 586.5L195.5 586.5L218.5 586.5L241.5 586.5L264.5 563.5L287.5 563.5L310.5 563.5L333.5 563.5L356.5 563.5L379.5 563.5L402.5 563.5L425.5 563.5L448.5 563.5L471.5 563.5L494.5 563.5L517.5 563.5L540.5 563.5L563.5 563.5L586.5 563.5L609.5 563.5L632.5 563.5" stroke="rgba(66, 68, 90, 1)" stroke-width="3.83"></path><path d="M626.75 563.5 a5.75 5.75 0 1 0 11.5 0 a5.75 5.75 0 1 0 -11.5 0zM97.75 609.5 a5.75 5.75 0 1 0 11.5 0 a5.75 5.75 0 1 0 -11.5 0zM235.75 563.5 a5.75 5.75 0 1 0 11.5 0 a5.75 5.75 0 1 0 -11.5 0zM580.75 586.5 a5.75 5.75 0 1 0 11.5 0 a5.75 5.75 0 1 0 -11.5 0zM626.75 586.5 a5.75 5.75 0 1 0 11.5 0 a5.75 5.75 0 1 0 -11.5 0zM258.75 586.5 a5.75 5.75 0 1 0 11.5 0 a5.75 5.75 0 1 0 -11.5 0zM488.75 586.5 a5.75 5.75 0 1 0 11.5 0 a5.75 5.75 0 1 0 -11.5 0zM327.75 586.5 a5.75 5.75 0 1 0 11.5 0 a5.75 5.75 0 1 0 -11.5 0z" fill="rgba(66, 68, 90, 1)"></path><path d="M11.5 494.5L34.5 494.5L57.5 494.5L80.5 494.5L103.5 494.5M241.5 471.5L264.5 494.5M540.5 471.5L563.5 494.5M126.5 471.5L149.5 494.5L172.5 494.5M425.5 471.5L448.5 448.5L471.5 448.5M402.5 471.5L425.5 448.5M-11.5 494.5L11.5 494.5L34.5 471.5L57.5 471.5L80.5 471.5L103.5 471.5L126.5 471.5L149.5 471.5L172.5 471.5L195.5 471.5L218.5 471.5L241.5 471.5L264.5 471.5L287.5 471.5L310.5 471.5L333.5 471.5L356.5 471.5L379.5 471.5L402.5 471.5L425.5 471.5L448.5 471.5L471.5 471.5L494.5 471.5L517.5 471.5L540.5 471.5L563.5 471.5" stroke="rgba(66, 68, 90, 1)" stroke-width="3.83"></path><path d="M557.75 471.5 a5.75 5.75 0 1 0 11.5 0 a5.75 5.75 0 1 0 -11.5 0zM97.75 494.5 a5.75 5.75 0 1 0 11.5 0 a5.75 5.75 0 1 0 -11.5 0zM258.75 494.5 a5.75 5.75 0 1 0 11.5 0 a5.75 5.75 0 1 0 -11.5 0zM557.75 494.5 a5.75 5.75 0 1 0 11.5 0 a5.75 5.75 0 1 0 -11.5 0zM166.75 494.5 a5.75 5.75 0 1 0 11.5 0 a5.75 5.75 0 1 0 -11.5 0zM465.75 448.5 a5.75 5.75 0 1 0 11.5 0 a5.75 5.75 0 1 0 -11.5 0zM419.75 448.5 a5.75 5.75 0 1 0 11.5 0 a5.75 5.75 0 1 0 -11.5 0z" fill="rgba(66, 68, 90, 1)"></path><path d="M517.5 448.5L540.5 425.5L563.5 425.5L586.5 425.5M471.5 425.5L494.5 425.5M379.5 448.5L402.5 448.5M-11.5 471.5L11.5 471.5L34.5 448.5L57.5 448.5L80.5 448.5L103.5 448.5L126.5 448.5L149.5 448.5L172.5 448.5L195.5 448.5L218.5 448.5L241.5 448.5L264.5 448.5L287.5 448.5L310.5 448.5L333.5 448.5L356.5 448.5L379.5 448.5L402.5 425.5L425.5 425.5L448.5 425.5L471.5 425.5L494.5 448.5L517.5 448.5L540.5 448.5" stroke="#dd1133" stroke-width="3.83"></path><path d="M534.75 448.5 a5.75 5.75 0 1 0 11.5 0 a5.75 5.75 0 1 0 -11.5 0zM580.75 425.5 a5.75 5.75 0 1 0 11.5 0 a5.75 5.75 0 1 0 -11.5 0zM488.75 425.5 a5.75 5.75 0 1 0 11.5 0 a5.75 5.75 0 1 0 -11.5 0zM396.75 448.5 a5.75 5.75 0 1 0 11.5 0 a5.75 5.75 0 1 0 -11.5 0z" fill="#dd1133"></path><path d="M103.5 655.5L126.5 632.5M218.5 655.5L241.5 632.5L264.5 632.5L287.5 609.5L310.5 609.5L333.5 609.5M126.5 655.5L149.5 655.5L172.5 655.5M310.5 632.5L333.5 655.5L356.5 655.5M-11.5 609.5L11.5 609.5L34.5 632.5L57.5 655.5L80.5 655.5L103.5 655.5L126.5 655.5L149.5 632.5L172.5 632.5L195.5 632.5L218.5 655.5L241.5 655.5L264.5 655.5L287.5 632.5L310.5 632.5L333.5 632.5L356.5 632.5" stroke="#dd1133" stroke-width="3.83"></path><path d="M350.75 632.5 a5.75 5.75 0 1 0 11.5 0 a5.75 5.75 0 1 0 -11.5 0zM120.75 632.5 a5.75 5.75 0 1 0 11.5 0 a5.75 5.75 0 1 0 -11.5 0zM327.75 609.5 a5.75 5.75 0 1 0 11.5 0 a5.75 5.75 0 1 0 -11.5 0zM166.75 655.5 a5.75 5.75 0 1 0 11.5 0 a5.75 5.75 0 1 0 -11.5 0zM350.75 655.5 a5.75 5.75 0 1 0 11.5 0 a5.75 5.75 0 1 0 -11.5 0z" fill="#dd1133"></path><path d="M149.5 425.5L172.5 402.5L195.5 402.5L218.5 402.5L241.5 402.5M632.5 402.5L655.5 425.5L678.5 425.5L701.5 425.5L724.5 425.5L747.5 425.5L770.5 425.5L793.5 425.5M333.5 425.5L356.5 402.5M126.5 425.5L149.5 402.5L172.5 379.5L195.5 379.5L218.5 379.5L241.5 379.5L264.5 379.5M103.5 425.5L126.5 402.5M310.5 425.5L333.5 402.5M609.5 402.5L632.5 425.5L655.5 448.5M448.5 402.5L471.5 379.5L494.5 379.5M-11.5 448.5L11.5 448.5L34.5 425.5L57.5 425.5L80.5 425.5L103.5 425.5L126.5 425.5L149.5 425.5L172.5 425.5L195.5 425.5L218.5 425.5L241.5 425.5L264.5 425.5L287.5 425.5L310.5 425.5L333.5 425.5L356.5 425.5L379.5 425.5L402.5 402.5L425.5 402.5L448.5 402.5L471.5 402.5L494.5 402.5L517.5 402.5L540.5 402.5L563.5 402.5L586.5 402.5L609.5 402.5L632.5 402.5L655.5 402.5L678.5 402.5L701.5 402.5" stroke="#dd1133" stroke-width="3.83"></path><path d="M695.75 402.5 a5.75 5.75 0 1 0 11.5 0 a5.75 5.75 0 1 0 -11.5 0zM235.75 402.5 a5.75 5.75 0 1 0 11.5 0 a5.75 5.75 0 1 0 -11.5 0zM787.75 425.5 a5.75 5.75 0 1 0 11.5 0 a5.75 5.75 0 1 0 -11.5 0zM350.75 402.5 a5.75 5.75 0 1 0 11.5 0 a5.75 5.75 0 1 0 -11.5 0zM258.75 379.5 a5.75 5.75 0 1 0 11.5 0 a5.75 5.75 0 1 0 -11.5 0zM120.75 402.5 a5.75 5.75 0 1 0 11.5 0 a5.75 5.75 0 1 0 -11.5 0zM327.75 402.5 a5.75 5.75 0 1 0 11.5 0 a5.75 5.75 0 1 0 -11.5 0zM649.75 448.5 a5.75 5.75 0 1 0 11.5 0 a5.75 5.75 0 1 0 -11.5 0zM488.75 379.5 a5.75 5.75 0 1 0 11.5 0 a5.75 5.75 0 1 0 -11.5 0z" fill="#dd1133"></path><path d="M586.5 701.5L609.5 724.5L632.5 724.5L655.5 724.5L678.5 724.5L701.5 724.5L724.5 724.5L747.5 724.5M356.5 701.5L379.5 678.5L402.5 678.5L425.5 678.5L448.5 678.5M379.5 701.5L402.5 724.5M425.5 701.5L448.5 724.5L471.5 724.5L494.5 724.5M494.5 701.5L517.5 678.5L540.5 678.5L563.5 678.5L586.5 678.5M471.5 701.5L494.5 678.5L517.5 655.5L540.5 655.5M333.5 678.5L356.5 678.5M-11.5 632.5L11.5 632.5L34.5 655.5L57.5 678.5L80.5 678.5L103.5 678.5L126.5 678.5L149.5 678.5L172.5 678.5L195.5 678.5L218.5 678.5L241.5 678.5L264.5 678.5L287.5 678.5L310.5 678.5L333.5 678.5L356.5 701.5L379.5 701.5L402.5 701.5L425.5 701.5L448.5 701.5L471.5 701.5L494.5 701.5L517.5 701.5L540.5 701.5L563.5 701.5L586.5 701.5L609.5 701.5" stroke="#dd1133" stroke-width="3.83"></path><path d="M603.75 701.5 a5.75 5.75 0 1 0 11.5 0 a5.75 5.75 0 1 0 -11.5 0zM741.75 724.5 a5.75 5.75 0 1 0 11.5 0 a5.75 5.75 0 1 0 -11.5 0zM442.75 678.5 a5.75 5.75 0 1 0 11.5 0 a5.75 5.75 0 1 0 -11.5 0zM396.75 724.5 a5.75 5.75 0 1 0 11.5 0 a5.75 5.75 0 1 0 -11.5 0zM488.75 724.5 a5.75 5.75 0 1 0 11.5 0 a5.75 5.75 0 1 0 -11.5 0zM580.75 678.5 a5.75 5.75 0 1 0 11.5 0 a5.75 5.75 0 1 0 -11.5 0zM534.75 655.5 a5.75 5.75 0 1 0 11.5 0 a5.75 5.75 0 1 0 -11.5 0zM350.75 678.5 a5.75 5.75 0 1 0 11.5 0 a5.75 5.75 0 1 0 -11.5 0z" fill="#dd1133"></path><path d="M241.5 724.5L264.5 701.5L287.5 701.5L310.5 701.5L333.5 701.5M218.5 701.5L241.5 701.5M-11.5 655.5L11.5 655.5L34.5 678.5L57.5 701.5L80.5 701.5L103.5 701.5L126.5 701.5L149.5 701.5L172.5 701.5L195.5 701.5L218.5 701.5L241.5 724.5L264.5 724.5L287.5 724.5" stroke="#dd1133" stroke-width="3.83"></path><path d="M281.75 724.5 a5.75 5.75 0 1 0 11.5 0 a5.75 5.75 0 1 0 -11.5 0zM327.75 701.5 a5.75 5.75 0 1 0 11.5 0 a5.75 5.75 0 1 0 -11.5 0zM235.75 701.5 a5.75 5.75 0 1 0 11.5 0 a5.75 5.75 0 1 0 -11.5 0z" fill="#dd1133"></path><path d="M333.5 356.5L356.5 379.5M402.5 356.5L425.5 379.5L448.5 379.5M724.5 356.5L747.5 356.5L770.5 356.5L793.5 379.5L816.5 379.5L839.5 379.5L862.5 379.5L885.5 379.5L908.5 379.5M425.5 356.5L448.5 333.5L471.5 333.5L494.5 333.5L517.5 333.5M678.5 356.5L701.5 333.5L724.5 333.5L747.5 310.5L770.5 310.5L793.5 310.5L816.5 310.5M655.5 356.5L678.5 379.5L701.5 379.5L724.5 402.5L747.5 402.5L770.5 402.5M770.5 333.5L793.5 333.5L816.5 333.5L839.5 333.5M356.5 356.5L379.5 333.5M632.5 356.5L655.5 333.5L678.5 333.5L701.5 310.5L724.5 310.5L747.5 287.5M-11.5 402.5L11.5 402.5L34.5 402.5L57.5 402.5L80.5 402.5L103.5 379.5L126.5 379.5L149.5 356.5L172.5 356.5L195.5 356.5L218.5 356.5L241.5 356.5L264.5 356.5L287.5 356.5L310.5 356.5L333.5 356.5L356.5 356.5L379.5 356.5L402.5 356.5L425.5 356.5L448.5 356.5L471.5 356.5L494.5 356.5L517.5 379.5L540.5 379.5L563.5 379.5L586.5 356.5L609.5 356.5L632.5 356.5L655.5 356.5L678.5 356.5L701.5 356.5L724.5 356.5L747.5 333.5L770.5 333.5L793.5 356.5L816.5 356.5L839.5 356.5" stroke="rgba(66, 68, 90, 1)" stroke-width="3.83"></path><path d="M833.75 356.5 a5.75 5.75 0 1 0 11.5 0 a5.75 5.75 0 1 0 -11.5 0zM350.75 379.5 a5.75 5.75 0 1 0 11.5 0 a5.75 5.75 0 1 0 -11.5 0zM442.75 379.5 a5.75 5.75 0 1 0 11.5 0 a5.75 5.75 0 1 0 -11.5 0zM902.75 379.5 a5.75 5.75 0 1 0 11.5 0 a5.75 5.75 0 1 0 -11.5 0zM511.75 333.5 a5.75 5.75 0 1 0 11.5 0 a5.75 5.75 0 1 0 -11.5 0zM810.75 310.5 a5.75 5.75 0 1 0 11.5 0 a5.75 5.75 0 1 0 -11.5 0zM764.75 402.5 a5.75 5.75 0 1 0 11.5 0 a5.75 5.75 0 1 0 -11.5 0zM833.75 333.5 a5.75 5.75 0 1 0 11.5 0 a5.75 5.75 0 1 0 -11.5 0zM373.75 333.5 a5.75 5.75 0 1 0 11.5 0 a5.75 5.75 0 1 0 -11.5 0zM741.75 287.5 a5.75 5.75 0 1 0 11.5 0 a5.75 5.75 0 1 0 -11.5 0z" fill="rgba(66, 68, 90, 1)"></path><path d="M-11.5 678.5L11.5 678.5L34.5 701.5L57.5 724.5L80.5 724.5L103.5 724.5L126.5 724.5L149.5 724.5L172.5 724.5L195.5 724.5L218.5 724.5L241.5 747.5L264.5 747.5L287.5 747.5L310.5 747.5" stroke="#3a7cc3" stroke-width="3.83"></path><path d="M304.75 747.5 a5.75 5.75 0 1 0 11.5 0 a5.75 5.75 0 1 0 -11.5 0z" fill="#3a7cc3"></path><path d="M-11.5 379.5L11.5 379.5L34.5 379.5L57.5 379.5L80.5 379.5L103.5 356.5L126.5 356.5" stroke="#3a7cc3" stroke-width="3.83"></path><path d="M120.75 356.5 a5.75 5.75 0 1 0 11.5 0 a5.75 5.75 0 1 0 -11.5 0z" fill="#3a7cc3"></path><path d="M448.5 770.5L471.5 747.5L494.5 747.5L517.5 747.5L540.5 747.5L563.5 747.5L586.5 747.5L609.5 747.5L632.5 747.5M402.5 770.5L425.5 747.5L448.5 747.5M356.5 747.5L379.5 747.5L402.5 747.5M379.5 770.5L402.5 793.5M-11.5 701.5L11.5 701.5L34.5 724.5L57.5 747.5L80.5 747.5L103.5 747.5L126.5 747.5L149.5 747.5L172.5 747.5L195.5 747.5L218.5 747.5L241.5 770.5L264.5 770.5L287.5 770.5L310.5 770.5L333.5 747.5L356.5 747.5L379.5 770.5L402.5 770.5L425.5 770.5L448.5 770.5L471.5 770.5L494.5 770.5L517.5 770.5" stroke="#3a7cc3" stroke-width="3.83"></path><path d="M511.75 770.5 a5.75 5.75 0 1 0 11.5 0 a5.75 5.75 0 1 0 -11.5 0zM626.75 747.5 a5.75 5.75 0 1 0 11.5 0 a5.75 5.75 0 1 0 -11.5 0zM442.75 747.5 a5.75 5.75 0 1 0 11.5 0 a5.75 5.75 0 1 0 -11.5 0zM396.75 747.5 a5.75 5.75 0 1 0 11.5 0 a5.75 5.75 0 1 0 -11.5 0zM396.75 793.5 a5.75 5.75 0 1 0 11.5 0 a5.75 5.75 0 1 0 -11.5 0z" fill="#3a7cc3"></path><path d="M425.5 310.5L448.5 287.5M356.5 310.5L379.5 287.5L402.5 287.5M264.5 333.5L287.5 310.5M333.5 310.5L356.5 333.5M310.5 310.5L333.5 287.5L356.5 287.5M-11.5 356.5L11.5 356.5L34.5 356.5L57.5 356.5L80.5 356.5L103.5 333.5L126.5 333.5L149.5 333.5L172.5 333.5L195.5 333.5L218.5 333.5L241.5 333.5L264.5 333.5L287.5 333.5L310.5 310.5L333.5 310.5L356.5 310.5L379.5 310.5L402.5 310.5L425.5 310.5L448.5 310.5" stroke="#3a7cc3" stroke-width="3.83"></path><path d="M442.75 310.5 a5.75 5.75 0 1 0 11.5 0 a5.75 5.75 0 1 0 -11.5 0zM442.75 287.5 a5.75 5.75 0 1 0 11.5 0 a5.75 5.75 0 1 0 -11.5 0zM396.75 287.5 a5.75 5.75 0 1 0 11.5 0 a5.75 5.75 0 1 0 -11.5 0zM281.75 310.5 a5.75 5.75 0 1 0 11.5 0 a5.75 5.75 0 1 0 -11.5 0zM350.75 333.5 a5.75 5.75 0 1 0 11.5 0 a5.75 5.75 0 1 0 -11.5 0zM350.75 287.5 a5.75 5.75 0 1 0 11.5 0 a5.75 5.75 0 1 0 -11.5 0z" fill="#3a7cc3"></path><path d="M-11.5 724.5L11.5 724.5L34.5 747.5L57.5 770.5L80.5 770.5L103.5 770.5L126.5 770.5L149.5 770.5L172.5 770.5L195.5 770.5L218.5 770.5L241.5 793.5L264.5 793.5L287.5 793.5L310.5 793.5L333.5 793.5" stroke="#3a7cc3" stroke-width="3.83"></path><path d="M327.75 793.5 a5.75 5.75 0 1 0 11.5 0 a5.75 5.75 0 1 0 -11.5 0z" fill="#3a7cc3"></path><path d="M218.5 310.5L241.5 310.5L264.5 310.5M195.5 310.5L218.5 287.5M287.5 287.5L310.5 287.5M-11.5 333.5L11.5 333.5L34.5 333.5L57.5 333.5L80.5 333.5L103.5 310.5L126.5 310.5L149.5 310.5L172.5 310.5L195.5 310.5L218.5 310.5L241.5 287.5L264.5 287.5L287.5 287.5L310.5 264.5L333.5 264.5L356.5 264.5L379.5 264.5" stroke="rgba(66, 68, 90, 1)" stroke-width="3.83"></path><path d="M373.75 264.5 a5.75 5.75 0 1 0 11.5 0 a5.75 5.75 0 1 0 -11.5 0zM258.75 310.5 a5.75 5.75 0 1 0 11.5 0 a5.75 5.75 0 1 0 -11.5 0zM212.75 287.5 a5.75 5.75 0 1 0 11.5 0 a5.75 5.75 0 1 0 -11.5 0zM304.75 287.5 a5.75 5.75 0 1 0 11.5 0 a5.75 5.75 0 1 0 -11.5 0z" fill="rgba(66, 68, 90, 1)"></path><path d="M632.5 793.5L655.5 770.5L678.5 770.5L701.5 770.5L724.5 770.5M678.5 793.5L701.5 816.5L724.5 816.5L747.5 816.5L770.5 816.5M356.5 816.5L379.5 793.5M471.5 793.5L494.5 816.5L517.5 816.5L540.5 816.5L563.5 839.5M655.5 793.5L678.5 816.5M563.5 793.5L586.5 770.5L609.5 770.5L632.5 770.5M448.5 793.5L471.5 816.5L494.5 839.5L517.5 839.5M310.5 816.5L333.5 839.5L356.5 839.5M747.5 793.5L770.5 770.5L793.5 770.5M-11.5 747.5L11.5 747.5L34.5 770.5L57.5 793.5L80.5 793.5L103.5 793.5L126.5 793.5L149.5 793.5L172.5 793.5L195.5 793.5L218.5 793.5L241.5 816.5L264.5 816.5L287.5 816.5L310.5 816.5L333.5 816.5L356.5 816.5L379.5 816.5L402.5 816.5L425.5 793.5L448.5 793.5L471.5 793.5L494.5 793.5L517.5 793.5L540.5 793.5L563.5 793.5L586.5 793.5L609.5 793.5L632.5 793.5L655.5 793.5L678.5 793.5L701.5 793.5L724.5 793.5L747.5 793.5L770.5 793.5L793.5 793.5L816.5 793.5" stroke="rgba(66, 68, 90, 1)" stroke-width="3.83"></path><path d="M810.75 793.5 a5.75 5.75 0 1 0 11.5 0 a5.75 5.75 0 1 0 -11.5 0zM718.75 770.5 a5.75 5.75 0 1 0 11.5 0 a5.75 5.75 0 1 0 -11.5 0zM764.75 816.5 a5.75 5.75 0 1 0 11.5 0 a5.75 5.75 0 1 0 -11.5 0zM373.75 793.5 a5.75 5.75 0 1 0 11.5 0 a5.75 5.75 0 1 0 -11.5 0zM557.75 839.5 a5.75 5.75 0 1 0 11.5 0 a5.75 5.75 0 1 0 -11.5 0zM672.75 816.5 a5.75 5.75 0 1 0 11.5 0 a5.75 5.75 0 1 0 -11.5 0zM626.75 770.5 a5.75 5.75 0 1 0 11.5 0 a5.75 5.75 0 1 0 -11.5 0zM511.75 839.5 a5.75 5.75 0 1 0 11.5 0 a5.75 5.75 0 1 0 -11.5 0zM350.75 839.5 a5.75 5.75 0 1 0 11.5 0 a5.75 5.75 0 1 0 -11.5 0zM787.75 770.5 a5.75 5.75 0 1 0 11.5 0 a5.75 5.75 0 1 0 -11.5 0z" fill="rgba(66, 68, 90, 1)"></path><path d="M-11.5 310.5L11.5 310.5L34.5 310.5L57.5 310.5L80.5 310.5L103.5 287.5L126.5 287.5L149.5 287.5L172.5 287.5" stroke="rgba(66, 68, 90, 1)" stroke-width="3.83"></path><path d="M166.75 287.5 a5.75 5.75 0 1 0 11.5 0 a5.75 5.75 0 1 0 -11.5 0z" fill="rgba(66, 68, 90, 1)"></path><path d="M80.5 816.5L103.5 839.5L126.5 839.5L149.5 839.5M241.5 839.5L264.5 862.5L287.5 885.5L310.5 885.5L333.5 885.5L356.5 885.5M517.5 885.5L540.5 908.5L563.5 908.5L586.5 908.5L609.5 931.5L632.5 931.5L655.5 931.5L678.5 931.5L701.5 931.5L724.5 931.5L747.5 931.5L770.5 931.5L793.5 931.5L816.5 931.5L839.5 931.5L862.5 931.5M57.5 816.5L80.5 839.5L103.5 862.5L126.5 862.5L149.5 862.5M195.5 816.5L218.5 839.5L241.5 862.5M494.5 885.5L517.5 908.5L540.5 931.5M609.5 885.5L632.5 862.5M425.5 885.5L448.5 908.5M264.5 839.5L287.5 839.5L310.5 839.5M701.5 862.5L724.5 839.5M-11.5 770.5L11.5 770.5L34.5 793.5L57.5 816.5L80.5 816.5L103.5 816.5L126.5 816.5L149.5 816.5L172.5 816.5L195.5 816.5L218.5 816.5L241.5 839.5L264.5 839.5L287.5 862.5L310.5 862.5L333.5 862.5L356.5 862.5L379.5 862.5L402.5 862.5L425.5 885.5L448.5 885.5L471.5 885.5L494.5 885.5L517.5 885.5L540.5 885.5L563.5 885.5L586.5 885.5L609.5 885.5L632.5 885.5L655.5 885.5L678.5 885.5L701.5 862.5L724.5 862.5L747.5 839.5L770.5 839.5L793.5 839.5L816.5 862.5L839.5 862.5L862.5 862.5L885.5 862.5" stroke="#3a7cc3" stroke-width="3.83"></path><path d="M879.75 862.5 a5.75 5.75 0 1 0 11.5 0 a5.75 5.75 0 1 0 -11.5 0zM143.75 839.5 a5.75 5.75 0 1 0 11.5 0 a5.75 5.75 0 1 0 -11.5 0zM350.75 885.5 a5.75 5.75 0 1 0 11.5 0 a5.75 5.75 0 1 0 -11.5 0zM856.75 931.5 a5.75 5.75 0 1 0 11.5 0 a5.75 5.75 0 1 0 -11.5 0zM143.75 862.5 a5.75 5.75 0 1 0 11.5 0 a5.75 5.75 0 1 0 -11.5 0zM235.75 862.5 a5.75 5.75 0 1 0 11.5 0 a5.75 5.75 0 1 0 -11.5 0zM534.75 931.5 a5.75 5.75 0 1 0 11.5 0 a5.75 5.75 0 1 0 -11.5 0zM626.75 862.5 a5.75 5.75 0 1 0 11.5 0 a5.75 5.75 0 1 0 -11.5 0zM442.75 908.5 a5.75 5.75 0 1 0 11.5 0 a5.75 5.75 0 1 0 -11.5 0zM304.75 839.5 a5.75 5.75 0 1 0 11.5 0 a5.75 5.75 0 1 0 -11.5 0zM718.75 839.5 a5.75 5.75 0 1 0 11.5 0 a5.75 5.75 0 1 0 -11.5 0z" fill="#3a7cc3"></path><path d="M103.5 264.5L126.5 241.5L149.5 241.5L172.5 241.5L195.5 241.5L218.5 241.5L241.5 241.5L264.5 218.5L287.5 218.5L310.5 218.5L333.5 218.5M57.5 287.5L80.5 264.5L103.5 241.5M632.5 264.5L655.5 287.5M563.5 264.5L586.5 287.5L609.5 287.5M425.5 241.5L448.5 218.5L471.5 218.5L494.5 218.5L517.5 218.5L540.5 218.5L563.5 218.5M264.5 264.5L287.5 241.5M471.5 241.5L494.5 264.5L517.5 264.5M-11.5 287.5L11.5 287.5L34.5 287.5L57.5 287.5L80.5 287.5L103.5 264.5L126.5 264.5L149.5 264.5L172.5 264.5L195.5 264.5L218.5 264.5L241.5 264.5L264.5 264.5L287.5 264.5L310.5 241.5L333.5 241.5L356.5 241.5L379.5 241.5L402.5 241.5L425.5 241.5L448.5 241.5L471.5 241.5L494.5 241.5L517.5 241.5L540.5 264.5L563.5 264.5L586.5 264.5L609.5 264.5L632.5 264.5L655.5 264.5" stroke="#3a7cc3" stroke-width="3.83"></path><path d="M649.75 264.5 a5.75 5.75 0 1 0 11.5 0 a5.75 5.75 0 1 0 -11.5 0zM327.75 218.5 a5.75 5.75 0 1 0 11.5 0 a5.75 5.75 0 1 0 -11.5 0zM97.75 241.5 a5.75 5.75 0 1 0 11.5 0 a5.75 5.75 0 1 0 -11.5 0zM649.75 287.5 a5.75 5.75 0 1 0 11.5 0 a5.75 5.75 0 1 0 -11.5 0zM603.75 287.5 a5.75 5.75 0 1 0 11.5 0 a5.75 5.75 0 1 0 -11.5 0zM557.75 218.5 a5.75 5.75 0 1 0 11.5 0 a5.75 5.75 0 1 0 -11.5 0zM281.75 241.5 a5.75 5.75 0 1 0 11.5 0 a5.75 5.75 0 1 0 -11.5 0zM511.75 264.5 a5.75 5.75 0 1 0 11.5 0 a5.75 5.75 0 1 0 -11.5 0z" fill="#3a7cc3"></path></g></g><defs><mask id="SvgjsMask1598"><rect width="1920" height="1080" fill="#ffffff"></rect></mask><mask id="SvgjsMask1599"><rect width="1920" height="1080" fill="white"></rect><path d="M77.62 563.5 a2.88 2.88 0 1 0 5.76 0 a2.88 2.88 0 1 0 -5.76 0zM54.62 540.5 a2.88 2.88 0 1 0 5.76 0 a2.88 2.88 0 1 0 -5.76 0z" fill="black"></path><path d="M376.62 494.5 a2.88 2.88 0 1 0 5.76 0 a2.88 2.88 0 1 0 -5.76 0zM307.62 494.5 a2.88 2.88 0 1 0 5.76 0 a2.88 2.88 0 1 0 -5.76 0zM330.62 540.5 a2.88 2.88 0 1 0 5.76 0 a2.88 2.88 0 1 0 -5.76 0zM215.62 494.5 a2.88 2.88 0 1 0 5.76 0 a2.88 2.88 0 1 0 -5.76 0zM123.62 540.5 a2.88 2.88 0 1 0 5.76 0 a2.88 2.88 0 1 0 -5.76 0z" fill="black"></path><path d="M629.62 563.5 a2.88 2.88 0 1 0 5.76 0 a2.88 2.88 0 1 0 -5.76 0zM100.62 609.5 a2.88 2.88 0 1 0 5.76 0 a2.88 2.88 0 1 0 -5.76 0zM238.62 563.5 a2.88 2.88 0 1 0 5.76 0 a2.88 2.88 0 1 0 -5.76 0zM583.62 586.5 a2.88 2.88 0 1 0 5.76 0 a2.88 2.88 0 1 0 -5.76 0zM629.62 586.5 a2.88 2.88 0 1 0 5.76 0 a2.88 2.88 0 1 0 -5.76 0zM261.62 586.5 a2.88 2.88 0 1 0 5.76 0 a2.88 2.88 0 1 0 -5.76 0zM491.62 586.5 a2.88 2.88 0 1 0 5.76 0 a2.88 2.88 0 1 0 -5.76 0zM330.62 586.5 a2.88 2.88 0 1 0 5.76 0 a2.88 2.88 0 1 0 -5.76 0z" fill="black"></path><path d="M560.62 471.5 a2.88 2.88 0 1 0 5.76 0 a2.88 2.88 0 1 0 -5.76 0zM100.62 494.5 a2.88 2.88 0 1 0 5.76 0 a2.88 2.88 0 1 0 -5.76 0zM261.62 494.5 a2.88 2.88 0 1 0 5.76 0 a2.88 2.88 0 1 0 -5.76 0zM560.62 494.5 a2.88 2.88 0 1 0 5.76 0 a2.88 2.88 0 1 0 -5.76 0zM169.62 494.5 a2.88 2.88 0 1 0 5.76 0 a2.88 2.88 0 1 0 -5.76 0zM468.62 448.5 a2.88 2.88 0 1 0 5.76 0 a2.88 2.88 0 1 0 -5.76 0zM422.62 448.5 a2.88 2.88 0 1 0 5.76 0 a2.88 2.88 0 1 0 -5.76 0z" fill="black"></path><path d="M537.62 448.5 a2.88 2.88 0 1 0 5.76 0 a2.88 2.88 0 1 0 -5.76 0zM583.62 425.5 a2.88 2.88 0 1 0 5.76 0 a2.88 2.88 0 1 0 -5.76 0zM491.62 425.5 a2.88 2.88 0 1 0 5.76 0 a2.88 2.88 0 1 0 -5.76 0zM399.62 448.5 a2.88 2.88 0 1 0 5.76 0 a2.88 2.88 0 1 0 -5.76 0z" fill="black"></path><path d="M353.62 632.5 a2.88 2.88 0 1 0 5.76 0 a2.88 2.88 0 1 0 -5.76 0zM123.62 632.5 a2.88 2.88 0 1 0 5.76 0 a2.88 2.88 0 1 0 -5.76 0zM330.62 609.5 a2.88 2.88 0 1 0 5.76 0 a2.88 2.88 0 1 0 -5.76 0zM169.62 655.5 a2.88 2.88 0 1 0 5.76 0 a2.88 2.88 0 1 0 -5.76 0zM353.62 655.5 a2.88 2.88 0 1 0 5.76 0 a2.88 2.88 0 1 0 -5.76 0z" fill="black"></path><path d="M698.62 402.5 a2.88 2.88 0 1 0 5.76 0 a2.88 2.88 0 1 0 -5.76 0zM238.62 402.5 a2.88 2.88 0 1 0 5.76 0 a2.88 2.88 0 1 0 -5.76 0zM790.62 425.5 a2.88 2.88 0 1 0 5.76 0 a2.88 2.88 0 1 0 -5.76 0zM353.62 402.5 a2.88 2.88 0 1 0 5.76 0 a2.88 2.88 0 1 0 -5.76 0zM261.62 379.5 a2.88 2.88 0 1 0 5.76 0 a2.88 2.88 0 1 0 -5.76 0zM123.62 402.5 a2.88 2.88 0 1 0 5.76 0 a2.88 2.88 0 1 0 -5.76 0zM330.62 402.5 a2.88 2.88 0 1 0 5.76 0 a2.88 2.88 0 1 0 -5.76 0zM652.62 448.5 a2.88 2.88 0 1 0 5.76 0 a2.88 2.88 0 1 0 -5.76 0zM491.62 379.5 a2.88 2.88 0 1 0 5.76 0 a2.88 2.88 0 1 0 -5.76 0z" fill="black"></path><path d="M606.62 701.5 a2.88 2.88 0 1 0 5.76 0 a2.88 2.88 0 1 0 -5.76 0zM744.62 724.5 a2.88 2.88 0 1 0 5.76 0 a2.88 2.88 0 1 0 -5.76 0zM445.62 678.5 a2.88 2.88 0 1 0 5.76 0 a2.88 2.88 0 1 0 -5.76 0zM399.62 724.5 a2.88 2.88 0 1 0 5.76 0 a2.88 2.88 0 1 0 -5.76 0zM491.62 724.5 a2.88 2.88 0 1 0 5.76 0 a2.88 2.88 0 1 0 -5.76 0zM583.62 678.5 a2.88 2.88 0 1 0 5.76 0 a2.88 2.88 0 1 0 -5.76 0zM537.62 655.5 a2.88 2.88 0 1 0 5.76 0 a2.88 2.88 0 1 0 -5.76 0zM353.62 678.5 a2.88 2.88 0 1 0 5.76 0 a2.88 2.88 0 1 0 -5.76 0z" fill="black"></path><path d="M284.62 724.5 a2.88 2.88 0 1 0 5.76 0 a2.88 2.88 0 1 0 -5.76 0zM330.62 701.5 a2.88 2.88 0 1 0 5.76 0 a2.88 2.88 0 1 0 -5.76 0zM238.62 701.5 a2.88 2.88 0 1 0 5.76 0 a2.88 2.88 0 1 0 -5.76 0z" fill="black"></path><path d="M836.62 356.5 a2.88 2.88 0 1 0 5.76 0 a2.88 2.88 0 1 0 -5.76 0zM353.62 379.5 a2.88 2.88 0 1 0 5.76 0 a2.88 2.88 0 1 0 -5.76 0zM445.62 379.5 a2.88 2.88 0 1 0 5.76 0 a2.88 2.88 0 1 0 -5.76 0zM905.62 379.5 a2.88 2.88 0 1 0 5.76 0 a2.88 2.88 0 1 0 -5.76 0zM514.62 333.5 a2.88 2.88 0 1 0 5.76 0 a2.88 2.88 0 1 0 -5.76 0zM813.62 310.5 a2.88 2.88 0 1 0 5.76 0 a2.88 2.88 0 1 0 -5.76 0zM767.62 402.5 a2.88 2.88 0 1 0 5.76 0 a2.88 2.88 0 1 0 -5.76 0zM836.62 333.5 a2.88 2.88 0 1 0 5.76 0 a2.88 2.88 0 1 0 -5.76 0zM376.62 333.5 a2.88 2.88 0 1 0 5.76 0 a2.88 2.88 0 1 0 -5.76 0zM744.62 287.5 a2.88 2.88 0 1 0 5.76 0 a2.88 2.88 0 1 0 -5.76 0z" fill="black"></path><path d="M307.62 747.5 a2.88 2.88 0 1 0 5.76 0 a2.88 2.88 0 1 0 -5.76 0z" fill="black"></path><path d="M123.62 356.5 a2.88 2.88 0 1 0 5.76 0 a2.88 2.88 0 1 0 -5.76 0z" fill="black"></path><path d="M514.62 770.5 a2.88 2.88 0 1 0 5.76 0 a2.88 2.88 0 1 0 -5.76 0zM629.62 747.5 a2.88 2.88 0 1 0 5.76 0 a2.88 2.88 0 1 0 -5.76 0zM445.62 747.5 a2.88 2.88 0 1 0 5.76 0 a2.88 2.88 0 1 0 -5.76 0zM399.62 747.5 a2.88 2.88 0 1 0 5.76 0 a2.88 2.88 0 1 0 -5.76 0zM399.62 793.5 a2.88 2.88 0 1 0 5.76 0 a2.88 2.88 0 1 0 -5.76 0z" fill="black"></path><path d="M445.62 310.5 a2.88 2.88 0 1 0 5.76 0 a2.88 2.88 0 1 0 -5.76 0zM445.62 287.5 a2.88 2.88 0 1 0 5.76 0 a2.88 2.88 0 1 0 -5.76 0zM399.62 287.5 a2.88 2.88 0 1 0 5.76 0 a2.88 2.88 0 1 0 -5.76 0zM284.62 310.5 a2.88 2.88 0 1 0 5.76 0 a2.88 2.88 0 1 0 -5.76 0zM353.62 333.5 a2.88 2.88 0 1 0 5.76 0 a2.88 2.88 0 1 0 -5.76 0zM353.62 287.5 a2.88 2.88 0 1 0 5.76 0 a2.88 2.88 0 1 0 -5.76 0z" fill="black"></path><path d="M330.62 793.5 a2.88 2.88 0 1 0 5.76 0 a2.88 2.88 0 1 0 -5.76 0z" fill="black"></path><path d="M376.62 264.5 a2.88 2.88 0 1 0 5.76 0 a2.88 2.88 0 1 0 -5.76 0zM261.62 310.5 a2.88 2.88 0 1 0 5.76 0 a2.88 2.88 0 1 0 -5.76 0zM215.62 287.5 a2.88 2.88 0 1 0 5.76 0 a2.88 2.88 0 1 0 -5.76 0zM307.62 287.5 a2.88 2.88 0 1 0 5.76 0 a2.88 2.88 0 1 0 -5.76 0z" fill="black"></path><path d="M813.62 793.5 a2.88 2.88 0 1 0 5.76 0 a2.88 2.88 0 1 0 -5.76 0zM721.62 770.5 a2.88 2.88 0 1 0 5.76 0 a2.88 2.88 0 1 0 -5.76 0zM767.62 816.5 a2.88 2.88 0 1 0 5.76 0 a2.88 2.88 0 1 0 -5.76 0zM376.62 793.5 a2.88 2.88 0 1 0 5.76 0 a2.88 2.88 0 1 0 -5.76 0zM560.62 839.5 a2.88 2.88 0 1 0 5.76 0 a2.88 2.88 0 1 0 -5.76 0zM675.62 816.5 a2.88 2.88 0 1 0 5.76 0 a2.88 2.88 0 1 0 -5.76 0zM629.62 770.5 a2.88 2.88 0 1 0 5.76 0 a2.88 2.88 0 1 0 -5.76 0zM514.62 839.5 a2.88 2.88 0 1 0 5.76 0 a2.88 2.88 0 1 0 -5.76 0zM353.62 839.5 a2.88 2.88 0 1 0 5.76 0 a2.88 2.88 0 1 0 -5.76 0zM790.62 770.5 a2.88 2.88 0 1 0 5.76 0 a2.88 2.88 0 1 0 -5.76 0z" fill="black"></path><path d="M169.62 287.5 a2.88 2.88 0 1 0 5.76 0 a2.88 2.88 0 1 0 -5.76 0z" fill="black"></path><path d="M882.62 862.5 a2.88 2.88 0 1 0 5.76 0 a2.88 2.88 0 1 0 -5.76 0zM146.62 839.5 a2.88 2.88 0 1 0 5.76 0 a2.88 2.88 0 1 0 -5.76 0zM353.62 885.5 a2.88 2.88 0 1 0 5.76 0 a2.88 2.88 0 1 0 -5.76 0zM859.62 931.5 a2.88 2.88 0 1 0 5.76 0 a2.88 2.88 0 1 0 -5.76 0zM146.62 862.5 a2.88 2.88 0 1 0 5.76 0 a2.88 2.88 0 1 0 -5.76 0zM238.62 862.5 a2.88 2.88 0 1 0 5.76 0 a2.88 2.88 0 1 0 -5.76 0zM537.62 931.5 a2.88 2.88 0 1 0 5.76 0 a2.88 2.88 0 1 0 -5.76 0zM629.62 862.5 a2.88 2.88 0 1 0 5.76 0 a2.88 2.88 0 1 0 -5.76 0zM445.62 908.5 a2.88 2.88 0 1 0 5.76 0 a2.88 2.88 0 1 0 -5.76 0zM307.62 839.5 a2.88 2.88 0 1 0 5.76 0 a2.88 2.88 0 1 0 -5.76 0zM721.62 839.5 a2.88 2.88 0 1 0 5.76 0 a2.88 2.88 0 1 0 -5.76 0z" fill="black"></path><path d="M652.62 264.5 a2.88 2.88 0 1 0 5.76 0 a2.88 2.88 0 1 0 -5.76 0zM330.62 218.5 a2.88 2.88 0 1 0 5.76 0 a2.88 2.88 0 1 0 -5.76 0zM100.62 241.5 a2.88 2.88 0 1 0 5.76 0 a2.88 2.88 0 1 0 -5.76 0zM652.62 287.5 a2.88 2.88 0 1 0 5.76 0 a2.88 2.88 0 1 0 -5.76 0zM606.62 287.5 a2.88 2.88 0 1 0 5.76 0 a2.88 2.88 0 1 0 -5.76 0zM560.62 218.5 a2.88 2.88 0 1 0 5.76 0 a2.88 2.88 0 1 0 -5.76 0zM284.62 241.5 a2.88 2.88 0 1 0 5.76 0 a2.88 2.88 0 1 0 -5.76 0zM514.62 264.5 a2.88 2.88 0 1 0 5.76 0 a2.88 2.88 0 1 0 -5.76 0z" fill="black"></path></mask></defs></svg>